<?xml version="1.0" encoding="UTF-8" standalone="no"?>
<!-- Created with Inkscape (http://www.inkscape.org/) -->

<svg
   xmlns:dc="http://purl.org/dc/elements/1.1/"
   xmlns:cc="http://creativecommons.org/ns#"
   xmlns:rdf="http://www.w3.org/1999/02/22-rdf-syntax-ns#"
   xmlns:svg="http://www.w3.org/2000/svg"
   xmlns="http://www.w3.org/2000/svg"
   xmlns:sodipodi="http://sodipodi.sourceforge.net/DTD/sodipodi-0.dtd"
   xmlns:inkscape="http://www.inkscape.org/namespaces/inkscape"
   width="320.5625"
   height="320.5625"
   id="svg2"
   version="1.1"
   inkscape:version="0.48.0 r9654"
   sodipodi:docname="New document 1">
  <defs
     id="defs4" />
  <sodipodi:namedview
     id="base"
     pagecolor="#ffffff"
     bordercolor="#666666"
     borderopacity="1.0"
     inkscape:pageopacity="0.0"
     inkscape:pageshadow="2"
     inkscape:zoom="0.7"
     inkscape:cx="102.8589"
     inkscape:cy="-8.7057844"
     inkscape:document-units="px"
     inkscape:current-layer="layer1"
     showgrid="false"
     fit-margin-top="0"
     fit-margin-left="0"
     fit-margin-right="0"
     fit-margin-bottom="0"
     inkscape:window-width="1366"
     inkscape:window-height="714"
     inkscape:window-x="0"
     inkscape:window-y="24"
     inkscape:window-maximized="1" />
  <metadata
     id="metadata7">
    <rdf:RDF>
      <cc:Work
         rdf:about="">
        <dc:format>image/svg+xml</dc:format>
        <dc:type
           rdf:resource="http://purl.org/dc/dcmitype/StillImage" />
        <dc:title></dc:title>
      </cc:Work>
    </rdf:RDF>
  </metadata>
  <g
     inkscape:label="Layer 1"
     inkscape:groupmode="layer"
     id="layer1"
     transform="translate(-219.71875,-243.5)">
    <path
       sodipodi:type="arc"
       style="fill:#edd400;stroke:#000000;stroke-width:17.70000076;stroke-linecap:round;stroke-linejoin:round;stroke-miterlimit:4;stroke-opacity:1;stroke-dasharray:none;stroke-dashoffset:0"
       id="path2985"
       sodipodi:cx="380"
       sodipodi:cy="403.79074"
       sodipodi:rx="151.42857"
       sodipodi:ry="151.42857"
       d="m 531.42857,403.79074 c 0,83.63169 -67.79688,151.42857 -151.42857,151.42857 -83.63169,0 -151.42857,-67.79688 -151.42857,-151.42857 0,-83.63169 67.79688,-151.42857 151.42857,-151.42857 83.63169,0 151.42857,67.79688 151.42857,151.42857 z" />
    <path
       sodipodi:type="arc"
       style="fill:none;stroke:#000000;stroke-width:17.70000076;stroke-linecap:round;stroke-linejoin:round;stroke-miterlimit:4;stroke-opacity:1;stroke-dasharray:none;stroke-dashoffset:0"
       id="path3759"
       sodipodi:cx="353.55341"
       sodipodi:cy="459.40265"
       sodipodi:rx="109.09647"
       sodipodi:ry="109.09647"
       d="m 462.64988,459.40265 c 0,60.25232 -48.84416,109.09647 -109.09647,109.09647 -3.34792,0 -6.69407,-0.15411 -10.02782,-0.46184"
       sodipodi:start="0"
       sodipodi:end="1.6628432"
       sodipodi:open="true"
       transform="matrix(0.95516938,0.29605987,-0.29605987,0.95516938,170.2309,-154.29737)" />
    <g
       id="g3763"
       transform="matrix(1.2603176,0,0,1.3997481,-156.07516,-112.43185)">
      <path
         d="m 417.60333,403.79074 c 0,14.55164 -16.83559,26.34807 -37.60333,26.34807 -20.76774,0 -37.60333,-11.79643 -37.60333,-26.34807 0,-14.55164 16.83559,-26.34807 37.60333,-26.34807 20.76774,0 37.60333,11.79643 37.60333,26.34807 z"
         sodipodi:ry="26.348074"
         sodipodi:rx="37.603329"
         sodipodi:cy="403.79074"
         sodipodi:cx="380"
         id="path3757"
         style="fill:#000000;fill-opacity:1;stroke:#000000;stroke-width:17.70000076;stroke-linecap:round;stroke-linejoin:round;stroke-miterlimit:4;stroke-opacity:1;stroke-dasharray:none;stroke-dashoffset:0"
         sodipodi:type="arc"
         transform="matrix(0.00723038,0.73261441,-0.58014113,0.00913067,685.65021,50.578397)" />
      <path
         transform="matrix(0.00723038,0.73261441,-0.58014113,0.00913067,629.65021,50.578397)"
         sodipodi:type="arc"
         style="fill:#000000;fill-opacity:1;stroke:#000000;stroke-width:17.70000076;stroke-linecap:round;stroke-linejoin:round;stroke-miterlimit:4;stroke-opacity:1;stroke-dasharray:none;stroke-dashoffset:0"
         id="path3761"
         sodipodi:cx="380"
         sodipodi:cy="403.79074"
         sodipodi:rx="37.603329"
         sodipodi:ry="26.348074"
         d="m 417.60333,403.79074 c 0,14.55164 -16.83559,26.34807 -37.60333,26.34807 -20.76774,0 -37.60333,-11.79643 -37.60333,-26.34807 0,-14.55164 16.83559,-26.34807 37.60333,-26.34807 20.76774,0 37.60333,11.79643 37.60333,26.34807 z" />
    </g>
  </g>
</svg>
